<svg width="25" height="25" viewBox="0 0 25 25" fill="none" xmlns="http://www.w3.org/2000/svg">
<path d="M7.18251 19.9767C8.44717 19.3689 8.97963 17.8509 8.37178 16.5862C7.76393 15.3216 6.24596 14.7891 4.98129 15.397C3.71662 16.0048 3.18417 17.5228 3.79201 18.7874C4.39986 20.0521 5.91784 20.5846 7.18251 19.9767Z" stroke="#04A29B" stroke-miterlimit="22.9256" stroke-linecap="round" stroke-linejoin="round"/>
<path d="M19.7515 20.0769C21.0708 19.5993 21.7532 18.1425 21.2756 16.8231C20.798 15.5037 19.3412 14.8213 18.0218 15.299C16.7024 15.7766 16.02 17.2334 16.4976 18.5528C16.9753 19.8722 18.4321 20.5546 19.7515 20.0769Z" stroke="#04A29B" stroke-miterlimit="22.9256" stroke-linecap="round" stroke-linejoin="round"/>
<path d="M21.4523 18.1951H23.9673V12.6057C23.9673 12.0192 23.5503 11.5894 22.9511 11.5894C21.3422 11.5894 17.9546 11.5894 16.3457 11.5894V7.52439H20.665L22.3853 11.5179M16.3457 15.6545V6H2.01626L1 18.1951H3.51504M20.7448 15.9085H23.7133M16.3202 18.1951H8.64714M1.25401 15.9085H4.2099M7.95227 15.9085H17.0278" stroke="#04A29B" stroke-miterlimit="22.9256" stroke-linecap="round" stroke-linejoin="round"/>
</svg>
