<svg width="20" height="21" viewBox="0 0 20 21" fill="none" xmlns="http://www.w3.org/2000/svg">
<path d="M17.4899 5.61181L16.5401 10.8354C16.4618 11.2675 16.2342 11.6584 15.897 11.9398C15.5598 12.2211 15.1346 12.3752 14.6954 12.375H5.63526L5.97618 14.25H14.375C14.7733 14.2498 15.1613 14.3764 15.4828 14.6114C15.8044 14.8464 16.0428 15.1777 16.1635 15.5572C16.2843 15.9367 16.2811 16.3448 16.1544 16.7224C16.0278 17.1 15.7842 17.4275 15.4591 17.6575C15.1339 17.8875 14.744 18.008 14.3457 18.0016C13.9475 17.9952 13.5617 17.8622 13.2441 17.6219C12.9264 17.3816 12.6936 17.0464 12.5791 16.6649C12.4647 16.2835 12.4746 15.8755 12.6075 15.5H8.0175C8.12763 15.8103 8.1541 16.1442 8.09424 16.468C8.03439 16.7918 7.89032 17.0941 7.67654 17.3446C7.46275 17.5951 7.18678 17.7848 6.87639 17.8948C6.56599 18.0047 6.23211 18.031 5.90834 17.971C5.58457 17.9109 5.28231 17.7667 5.03197 17.5528C4.78163 17.3388 4.59204 17.0628 4.48227 16.7523C4.37249 16.4418 4.3464 16.1079 4.40662 15.7842C4.46684 15.4605 4.61125 15.1583 4.82532 14.9081L2.66022 3H1.25C1.08424 3 0.925268 2.93415 0.808058 2.81694C0.690848 2.69973 0.625 2.54076 0.625 2.375C0.625 2.20924 0.690848 2.05027 0.808058 1.93306C0.925268 1.81585 1.08424 1.75 1.25 1.75H2.66022C2.95299 1.74987 3.23652 1.85257 3.4613 2.04016C3.68608 2.22776 3.83783 2.48834 3.89008 2.77642L4.27162 4.875H16.875C16.9665 4.87501 17.057 4.89513 17.1399 4.93393C17.2228 4.97273 17.2962 5.02927 17.3548 5.09955C17.4135 5.16983 17.456 5.25214 17.4793 5.34066C17.5027 5.42918 17.5063 5.52174 17.4899 5.61181Z" fill="#1A1A1A"/>
</svg>
