<svg width="19" height="18" viewBox="0 0 19 18" fill="none" xmlns="http://www.w3.org/2000/svg">
<path fill-rule="evenodd" clip-rule="evenodd" d="M16.823 5.10711C16.928 4.75461 16.823 4.49961 16.328 4.49961H14.6855C14.5324 4.48943 14.3801 4.52928 14.2516 4.61314C14.1231 4.69701 14.0253 4.82035 13.973 4.96461C13.463 6.18711 12.788 7.32711 11.9555 8.35461C11.573 8.74461 11.4005 8.8646 11.1905 8.8646C11.0855 8.8646 10.928 8.74461 10.928 8.39211V5.10711C10.928 4.68711 10.8155 4.49961 10.463 4.49961H7.89047C7.66547 4.48461 7.48547 4.65711 7.47047 4.87461V4.88211C7.47047 5.27961 8.06297 5.37711 8.12297 6.50211V8.94711C8.12297 9.47961 8.02547 9.57711 7.82297 9.57711C7.26797 9.57711 5.91047 7.51461 5.10797 5.15211C4.95047 4.68711 4.79297 4.49961 4.37297 4.49961H2.73047C2.25797 4.49961 2.16797 4.72461 2.16797 4.97211C2.16797 5.41461 2.72297 7.58961 4.75547 10.4696C5.2876 11.3367 6.01922 12.064 6.88938 12.5911C7.75954 13.1181 8.74305 13.4296 9.75797 13.4996C10.8005 13.4996 10.928 13.2596 10.928 12.8546V11.3696C10.928 10.8971 11.0255 10.7996 11.3555 10.7996C11.603 10.7996 12.0155 10.9196 12.9905 11.8721C14.108 12.9971 14.2955 13.4996 14.918 13.4996H16.5605C17.0255 13.4996 17.2655 13.2596 17.1305 12.7946C16.7832 12.0721 16.3138 11.415 15.743 10.8521C15.3605 10.3946 14.7905 9.89961 14.6105 9.65961C14.3705 9.34461 14.438 9.20211 14.6105 8.9246C14.618 8.9171 16.613 6.07461 16.823 5.10711Z" fill="white"/>
</svg>
