<svg width="22" height="14" viewBox="0 0 22 14" fill="none" xmlns="http://www.w3.org/2000/svg">
<path fill-rule="evenodd" clip-rule="evenodd" d="M20.7542 11.8062C20.5121 12.6666 19.7989 13.3444 18.8931 13.5744C17.2513 13.9922 10.6678 13.9922 10.6678 13.9922C10.6678 13.9922 4.08456 13.9922 2.44277 13.5744C1.53697 13.3444 0.823687 12.6666 0.581595 11.8062C0.141602 10.2464 0.141602 6.99231 0.141602 6.99231C0.141602 6.99231 0.141602 3.73808 0.581595 2.17838C0.823687 1.31803 1.53697 0.640087 2.44277 0.410264C4.08456 -0.00772953 10.6678 -0.00772953 10.6678 -0.00772953C10.6678 -0.00772953 17.2513 -0.00772953 18.8931 0.410264C19.7989 0.640087 20.5121 1.31803 20.7542 2.17838C21.1942 3.73808 21.1942 6.99231 21.1942 6.99231C21.1942 6.99231 21.1942 10.2464 20.7542 11.8062Z" fill="white"/>
<path fill-rule="evenodd" clip-rule="evenodd" d="M8.56262 3.99211L14.032 6.99198L8.56262 9.99219V3.99211Z" fill="#1A1A1A"/>
</svg>
