<svg width="47" height="15" viewBox="0 0 47 15" fill="none" xmlns="http://www.w3.org/2000/svg">
<path d="M30.4207 0.0263672C27.1044 0.0263672 24.1409 1.70629 24.1409 4.81008C24.1409 8.36954 29.3968 8.61539 29.3968 10.4036C29.3968 11.1565 28.514 11.8305 27.0061 11.8305C24.8661 11.8305 23.2667 10.8887 23.2667 10.8887L22.5824 14.0208C22.5824 14.0208 24.4249 14.8163 26.8711 14.8163C30.4968 14.8163 33.3498 13.0539 33.3498 9.89701C33.3498 6.1358 28.0719 5.89726 28.0719 4.23753C28.0719 3.64773 28.7967 3.00147 30.3002 3.00147C31.9967 3.00147 33.3808 3.68639 33.3808 3.68639L34.0506 0.661342C34.0506 0.661342 32.5445 0.0263672 30.4207 0.0263672ZM0.0802993 0.254673L0 0.711284C0 0.711284 1.39515 0.960833 2.6517 1.45863C4.26962 2.02945 4.38488 2.36175 4.65736 3.39387L7.62661 14.5808H11.6069L17.7388 0.254673H13.7677L9.82754 9.99511L8.21973 1.73866C8.07228 0.793714 7.32539 0.254673 6.41117 0.254673H0.0802993ZM19.3357 0.254673L16.2205 14.5808H20.0073L23.1116 0.254673H19.3357ZM40.4562 0.254673C39.5431 0.254673 39.0593 0.732478 38.7043 1.56743L33.1563 14.5808H37.1275L37.8958 12.4119H42.7338L43.201 14.5808H46.705L43.6481 0.254673H40.4562ZM40.9727 4.12516L42.1498 9.50105H38.9963L40.9727 4.12516Z" fill="#CECECE"/>
</svg>
