<svg width="47" height="37" viewBox="0 0 47 37" fill="none" xmlns="http://www.w3.org/2000/svg">
<path d="M8.60925 36.4758V34.0214C8.60925 33.0825 8.04905 32.4678 7.08737 32.4678C6.60654 32.4678 6.08368 32.6298 5.72422 33.1636C5.44412 32.7156 5.04265 32.4678 4.44043 32.4678C4.03896 32.4678 3.63748 32.5917 3.32004 33.0397V32.5488H2.47974V36.4758H3.32004V34.3074C3.32004 33.6116 3.6795 33.2827 4.2397 33.2827C4.79989 33.2827 5.07999 33.6497 5.07999 34.3074V36.4758H5.92029V34.3074C5.92029 33.6116 6.32177 33.2827 6.83995 33.2827C7.40015 33.2827 7.68025 33.6497 7.68025 34.3074V36.4758H8.60925ZM21.0737 32.5488H19.7105V31.3621H18.8702V32.5488H18.1093V33.3256H18.8702V35.1271C18.8702 36.0278 19.2297 36.5568 20.1914 36.5568C20.5508 36.5568 20.9523 36.4329 21.2324 36.2709L20.9896 35.5322C20.7469 35.6942 20.4668 35.7371 20.2661 35.7371C19.8646 35.7371 19.7059 35.4893 19.7059 35.0842V33.3256H21.069V32.5488H21.0737ZM28.2069 32.463C27.726 32.463 27.4039 32.7108 27.2032 33.0349V32.544H26.3629V36.4711H27.2032V34.2597C27.2032 33.6068 27.4833 33.2351 28.0061 33.2351C28.1649 33.2351 28.3656 33.2779 28.529 33.3161L28.7717 32.4964C28.6037 32.463 28.3656 32.463 28.2069 32.463ZM17.4277 32.8729C17.0262 32.5869 16.466 32.463 15.8638 32.463C14.9022 32.463 14.2626 32.9539 14.2626 33.7307C14.2626 34.3836 14.7434 34.7554 15.5837 34.8745L15.9852 34.9174C16.424 34.9984 16.6668 35.1223 16.6668 35.3273C16.6668 35.6132 16.3447 35.8181 15.7845 35.8181C15.2243 35.8181 14.7808 35.6132 14.5007 35.4083L14.0992 36.0612C14.538 36.39 15.1402 36.5521 15.7424 36.5521C16.8628 36.5521 17.5071 36.0183 17.5071 35.2844C17.5071 34.5886 16.9842 34.2216 16.1859 34.0977L15.7845 34.0548C15.425 34.0119 15.1449 33.9309 15.1449 33.6878C15.1449 33.4019 15.425 33.2398 15.8685 33.2398C16.3493 33.2398 16.8302 33.4448 17.0729 33.5687L17.4277 32.8729ZM39.7843 32.463C39.3035 32.463 38.9814 32.7108 38.7806 33.0349V32.544H37.9403V36.4711H38.7806V34.2597C38.7806 33.6068 39.0607 33.2351 39.5836 33.2351C39.7423 33.2351 39.9431 33.2779 40.1064 33.3161L40.3492 32.5059C40.1858 32.463 39.9477 32.463 39.7843 32.463ZM29.0472 34.5123C29.0472 35.699 29.8501 36.5568 31.0919 36.5568C31.6521 36.5568 32.0536 36.4329 32.4551 36.1088L32.0536 35.413C31.7315 35.6609 31.414 35.78 31.0499 35.78C30.3683 35.78 29.8875 35.2891 29.8875 34.5123C29.8875 33.7736 30.3683 33.2827 31.0499 33.2446C31.4093 33.2446 31.7315 33.3685 32.0536 33.6116L32.4551 32.9157C32.0536 32.5869 31.6521 32.4678 31.0919 32.4678C29.8501 32.463 29.0472 33.3256 29.0472 34.5123ZM36.8199 34.5123V32.5488H35.9796V33.0397C35.6995 32.6727 35.2981 32.4678 34.7752 32.4678C33.6922 32.4678 32.8519 33.3256 32.8519 34.5123C32.8519 35.699 33.6922 36.5568 34.7752 36.5568C35.3354 36.5568 35.7369 36.3519 35.9796 35.9849V36.4758H36.8199V34.5123ZM33.7342 34.5123C33.7342 33.8165 34.173 33.2446 34.8966 33.2446C35.5782 33.2446 36.059 33.7784 36.059 34.5123C36.059 35.2081 35.5782 35.78 34.8966 35.78C34.1777 35.7371 33.7342 35.2033 33.7342 34.5123ZM23.6786 32.463C22.5582 32.463 21.7553 33.2827 21.7553 34.5075C21.7553 35.7371 22.5582 36.5521 23.7206 36.5521C24.2808 36.5521 24.841 36.39 25.2845 36.0183L24.883 35.4035C24.5609 35.6513 24.1594 35.8134 23.7626 35.8134C23.2398 35.8134 22.7216 35.5655 22.6002 34.8745H25.4432C25.4432 34.7506 25.4432 34.6696 25.4432 34.5457C25.4806 33.2827 24.757 32.463 23.6786 32.463ZM23.6786 33.2017C24.2015 33.2017 24.5609 33.5305 24.6403 34.1406H22.6376C22.7169 33.6116 23.0764 33.2017 23.6786 33.2017ZM44.5554 34.5123V30.9951H43.7151V33.0397C43.435 32.6727 43.0335 32.4678 42.5106 32.4678C41.4276 32.4678 40.5873 33.3256 40.5873 34.5123C40.5873 35.699 41.4276 36.5568 42.5106 36.5568C43.0708 36.5568 43.4723 36.3519 43.7151 35.9849V36.4758H44.5554V34.5123ZM41.4696 34.5123C41.4696 33.8165 41.9084 33.2446 42.632 33.2446C43.3136 33.2446 43.7944 33.7784 43.7944 34.5123C43.7944 35.2081 43.3136 35.78 42.632 35.78C41.9084 35.7371 41.4696 35.2033 41.4696 34.5123ZM13.3383 34.5123V32.5488H12.498V33.0397C12.2179 32.6727 11.8164 32.4678 11.2935 32.4678C10.2105 32.4678 9.37018 33.3256 9.37018 34.5123C9.37018 35.699 10.2105 36.5568 11.2935 36.5568C11.8537 36.5568 12.2552 36.3519 12.498 35.9849V36.4758H13.3383V34.5123ZM10.2152 34.5123C10.2152 33.8165 10.654 33.2446 11.3776 33.2446C12.0591 33.2446 12.54 33.7784 12.54 34.5123C12.54 35.2081 12.0591 35.78 11.3776 35.78C10.654 35.7371 10.2152 35.2033 10.2152 34.5123Z" fill="#CECECE"/>
<path d="M29.7217 3.37402H17.0825V26.0815H29.7217V3.37402Z" fill="#B0B0B0"/>
<path d="M17.9239 14.7285C17.9239 10.1151 20.0928 6.02045 23.4209 3.37483C20.9716 1.44904 17.8819 0.285156 14.5118 0.285156C6.52816 0.285156 0.0683594 6.74495 0.0683594 14.7285C0.0683594 22.7121 6.52816 29.1719 14.5118 29.1719C17.8819 29.1719 20.9716 28.0081 23.4209 26.0823C20.0881 23.4741 17.9239 19.342 17.9239 14.7285Z" fill="#CECECE"/>
<path d="M46.7734 14.7285C46.7734 22.7121 40.3136 29.1719 32.33 29.1719C28.9599 29.1719 25.8702 28.0081 23.4209 26.0823C26.791 23.432 28.9178 19.342 28.9178 14.7285C28.9178 10.1151 26.749 6.02045 23.4209 3.37483C25.8655 1.44904 28.9552 0.285156 32.3253 0.285156C40.3136 0.285156 46.7734 6.78702 46.7734 14.7285Z" fill="#CECECE"/>
</svg>
