<svg width="39" height="41" viewBox="0 0 39 41" fill="none" xmlns="http://www.w3.org/2000/svg">
<path fill-rule="evenodd" clip-rule="evenodd" d="M26.8005 35.3787C30.1955 35.3787 33.8786 36.5387 37.9565 40.1391C38.3651 40.4995 38.9089 40.0515 38.5518 39.6035C34.5453 34.5615 30.8396 33.6016 27.1439 32.7907C22.6224 31.7971 20.2977 29.2617 18.6773 26.4785C18.3552 25.9253 18.2099 26.0229 18.181 26.735C18.1447 27.6048 18.2061 28.7573 18.4016 29.8911C18.2186 29.8986 18.0357 29.8974 17.8502 29.8974C11.3837 29.8974 6.14031 24.6714 6.14031 18.2253C6.14031 11.7804 11.3837 6.55564 17.8514 6.55564C24.318 6.55564 29.5613 11.7804 29.5613 18.2253C29.5613 18.6845 29.5388 19.1388 29.4861 19.5831C28.6315 19.4291 26.9484 19.4116 25.7679 19.513C25.3243 19.5518 25.3869 19.7583 25.7228 19.8183C29.5939 20.5154 32.2519 22.9069 32.861 27.2456C32.8735 27.3457 33.0064 27.3745 33.0578 27.2881C34.7038 24.5513 35.5708 21.4178 35.5654 18.2253C35.5654 8.47659 27.6339 0.571289 17.8514 0.571289C8.06773 0.571289 0.13623 8.47534 0.13623 18.2253C0.13623 27.9764 8.06773 35.8817 17.8514 35.8817C20.4456 35.8817 23.0221 35.3787 26.8005 35.3787ZM28.1189 28.9688C28.9072 29.6321 29.1465 30.4217 28.7305 30.9786C28.4986 31.284 28.1227 31.4529 27.6715 31.4529C27.2314 31.453 26.8052 31.2989 26.4672 31.0174C25.7504 30.393 25.5398 29.3818 26.0073 28.8074C26.1902 28.5821 26.4872 28.4582 26.8431 28.4582C27.2755 28.4582 27.7292 28.6397 28.1189 28.9688ZM31.7557 27.2819C31.871 28.0553 31.6266 28.3756 31.3797 28.3756C31.1103 28.3756 30.7732 28.0628 30.3759 27.4433C29.9824 26.8326 29.8383 26.1318 30.0338 25.7777C30.1616 25.5436 30.4311 25.441 30.7707 25.5699C31.4286 25.8165 31.6855 26.8201 31.7557 27.2819Z" fill="#CECECE"/>
</svg>
