<svg aria-hidden="true" xmlns="http://www.w3.org/2000/svg" xmlns:xlink="http://www.w3.org/1999/xlink"><symbol viewBox="0 0 20 20" id="arr-left" xmlns="http://www.w3.org/2000/svg">
<path d="M2.64645 10.3536C2.45118 10.1583 2.45118 9.84171 2.64645 9.64645L5.82843 6.46447C6.02369 6.2692 6.34027 6.2692 6.53553 6.46447C6.7308 6.65973 6.7308 6.97631 6.53553 7.17157L3.70711 10L6.53553 12.8284C6.7308 13.0237 6.7308 13.3403 6.53553 13.5355C6.34027 13.7308 6.02369 13.7308 5.82843 13.5355L2.64645 10.3536ZM18 10.5L3 10.5L3 9.5L18 9.5L18 10.5Z"/>
</symbol><symbol viewBox="0 0 20 20" id="arr-right" xmlns="http://www.w3.org/2000/svg">
<path d="M18.3536 10.3536C18.5488 10.1583 18.5488 9.84171 18.3536 9.64645L15.1716 6.46447C14.9763 6.2692 14.6597 6.2692 14.4645 6.46447C14.2692 6.65973 14.2692 6.97631 14.4645 7.17157L17.2929 10L14.4645 12.8284C14.2692 13.0237 14.2692 13.3403 14.4645 13.5355C14.6597 13.7308 14.9763 13.7308 15.1716 13.5355L18.3536 10.3536ZM3 10.5L18 10.5L18 9.5L3 9.5L3 10.5Z"/>
</symbol><symbol viewBox="0 0 25 25" id="certificate" xmlns="http://www.w3.org/2000/svg">
<path d="M15.5909 15.1818L14.5909 21.1364L17.7728 19.3182L21.2728 21.1364L20.2273 15.5455" stroke-linecap="round" stroke-linejoin="round"/>
<path d="M15.2273 17.4545H4C3.44772 17.4545 3 17.0068 3 16.4545V5C3 4.44771 3.44772 4 4 4H22C22.5523 4 23 4.44772 23 5V16.4545C23 17.0068 22.5523 17.4545 22 17.4545H20.5909" stroke-linejoin="round"/>
<path d="M5.63629 7.36365L19.9999 7.36365" stroke-linecap="round"/>
<path d="M5.63629 10.7273L11.7272 10.7273" stroke-linecap="round"/>
<ellipse cx="18" cy="13.1818" rx="3.09091" ry="3.09091"/>
</symbol><symbol viewBox="0 0 20 20" id="down" xmlns="http://www.w3.org/2000/svg">
<path d="M7 8.5L10.5 12L14 8.5" stroke-linecap="round" stroke-linejoin="round"/>
</symbol><symbol viewBox="0 0 25 24" id="heart" xmlns="http://www.w3.org/2000/svg">
<path d="M12.5 8.75C12.5 8.75 13.5983 5 17.0763 5C19.7854 5 21.5 7.14995 21.5 9.69695C21.5 13.2195 17.9281 15.552 12.5 20C7.07197 15.552 3.5 13.2195 3.5 9.69695C3.5 7.14995 5.21458 5 7.92373 5C11.4017 5 12.5 8.75 12.5 8.75Z" stroke-miterlimit="10" stroke-linecap="round" stroke-linejoin="round"/>
</symbol><symbol viewBox="0 0 25 25" id="post" xmlns="http://www.w3.org/2000/svg">
<path d="M7.18251 19.9767C8.44717 19.3689 8.97963 17.8509 8.37178 16.5862C7.76393 15.3216 6.24596 14.7891 4.98129 15.397C3.71662 16.0048 3.18417 17.5228 3.79201 18.7874C4.39986 20.0521 5.91784 20.5846 7.18251 19.9767Z" stroke-miterlimit="22.9256" stroke-linecap="round" stroke-linejoin="round"/>
<path d="M19.7515 20.0769C21.0708 19.5993 21.7532 18.1425 21.2756 16.8231C20.798 15.5037 19.3412 14.8213 18.0218 15.299C16.7024 15.7766 16.02 17.2334 16.4976 18.5528C16.9753 19.8722 18.4321 20.5546 19.7515 20.0769Z" stroke-miterlimit="22.9256" stroke-linecap="round" stroke-linejoin="round"/>
<path d="M21.4523 18.1951H23.9673V12.6057C23.9673 12.0192 23.5503 11.5894 22.9511 11.5894C21.3422 11.5894 17.9546 11.5894 16.3457 11.5894V7.52439H20.665L22.3853 11.5179M16.3457 15.6545V6H2.01626L1 18.1951H3.51504M20.7448 15.9085H23.7133M16.3202 18.1951H8.64714M1.25401 15.9085H4.2099M7.95227 15.9085H17.0278" stroke-miterlimit="22.9256" stroke-linecap="round" stroke-linejoin="round"/>
</symbol><symbol viewBox="0 0 20 21" id="shopping-cart" xmlns="http://www.w3.org/2000/svg">
<path d="M17.4899 5.61181L16.5401 10.8354C16.4618 11.2675 16.2342 11.6584 15.897 11.9398C15.5598 12.2211 15.1346 12.3752 14.6954 12.375H5.63526L5.97618 14.25H14.375C14.7733 14.2498 15.1613 14.3764 15.4828 14.6114C15.8044 14.8464 16.0428 15.1777 16.1635 15.5572C16.2843 15.9367 16.2811 16.3448 16.1544 16.7224C16.0278 17.1 15.7842 17.4275 15.4591 17.6575C15.1339 17.8875 14.744 18.008 14.3457 18.0016C13.9475 17.9952 13.5617 17.8622 13.2441 17.6219C12.9264 17.3816 12.6936 17.0464 12.5791 16.6649C12.4647 16.2835 12.4746 15.8755 12.6075 15.5H8.0175C8.12763 15.8103 8.1541 16.1442 8.09424 16.468C8.03439 16.7918 7.89032 17.0941 7.67654 17.3446C7.46275 17.5951 7.18678 17.7848 6.87639 17.8948C6.56599 18.0047 6.23211 18.031 5.90834 17.971C5.58457 17.9109 5.28231 17.7667 5.03197 17.5528C4.78163 17.3388 4.59204 17.0628 4.48227 16.7523C4.37249 16.4418 4.3464 16.1079 4.40662 15.7842C4.46684 15.4605 4.61125 15.1583 4.82532 14.9081L2.66022 3H1.25C1.08424 3 0.925268 2.93415 0.808058 2.81694C0.690848 2.69973 0.625 2.54076 0.625 2.375C0.625 2.20924 0.690848 2.05027 0.808058 1.93306C0.925268 1.81585 1.08424 1.75 1.25 1.75H2.66022C2.95299 1.74987 3.23652 1.85257 3.4613 2.04016C3.68608 2.22776 3.83783 2.48834 3.89008 2.77642L4.27162 4.875H16.875C16.9665 4.87501 17.057 4.89513 17.1399 4.93393C17.2228 4.97273 17.2962 5.02927 17.3548 5.09955C17.4135 5.16983 17.456 5.25214 17.4793 5.34066C17.5027 5.42918 17.5063 5.52174 17.4899 5.61181Z"/>
</symbol><symbol viewBox="0 0 19 18" id="vk" xmlns="http://www.w3.org/2000/svg">
<path fill-rule="evenodd" clip-rule="evenodd" d="M16.823 5.10711C16.928 4.75461 16.823 4.49961 16.328 4.49961H14.6855C14.5324 4.48943 14.3801 4.52928 14.2516 4.61314C14.1231 4.69701 14.0253 4.82035 13.973 4.96461C13.463 6.18711 12.788 7.32711 11.9555 8.35461C11.573 8.74461 11.4005 8.8646 11.1905 8.8646C11.0855 8.8646 10.928 8.74461 10.928 8.39211V5.10711C10.928 4.68711 10.8155 4.49961 10.463 4.49961H7.89047C7.66547 4.48461 7.48547 4.65711 7.47047 4.87461V4.88211C7.47047 5.27961 8.06297 5.37711 8.12297 6.50211V8.94711C8.12297 9.47961 8.02547 9.57711 7.82297 9.57711C7.26797 9.57711 5.91047 7.51461 5.10797 5.15211C4.95047 4.68711 4.79297 4.49961 4.37297 4.49961H2.73047C2.25797 4.49961 2.16797 4.72461 2.16797 4.97211C2.16797 5.41461 2.72297 7.58961 4.75547 10.4696C5.2876 11.3367 6.01922 12.064 6.88938 12.5911C7.75954 13.1181 8.74305 13.4296 9.75797 13.4996C10.8005 13.4996 10.928 13.2596 10.928 12.8546V11.3696C10.928 10.8971 11.0255 10.7996 11.3555 10.7996C11.603 10.7996 12.0155 10.9196 12.9905 11.8721C14.108 12.9971 14.2955 13.4996 14.918 13.4996H16.5605C17.0255 13.4996 17.2655 13.2596 17.1305 12.7946C16.7832 12.0721 16.3138 11.415 15.743 10.8521C15.3605 10.3946 14.7905 9.89961 14.6105 9.65961C14.3705 9.34461 14.438 9.20211 14.6105 8.9246C14.618 8.9171 16.613 6.07461 16.823 5.10711Z"/>
</symbol><symbol viewBox="0 0 22 14" id="youtube" xmlns="http://www.w3.org/2000/svg">
<path fill-rule="evenodd" clip-rule="evenodd" d="M20.7542 11.8062C20.5121 12.6666 19.7989 13.3444 18.8931 13.5744C17.2513 13.9922 10.6678 13.9922 10.6678 13.9922C10.6678 13.9922 4.08456 13.9922 2.44277 13.5744C1.53697 13.3444 0.823687 12.6666 0.581595 11.8062C0.141602 10.2464 0.141602 6.99231 0.141602 6.99231C0.141602 6.99231 0.141602 3.73808 0.581595 2.17838C0.823687 1.31803 1.53697 0.640087 2.44277 0.410264C4.08456 -0.00772953 10.6678 -0.00772953 10.6678 -0.00772953C10.6678 -0.00772953 17.2513 -0.00772953 18.8931 0.410264C19.7989 0.640087 20.5121 1.31803 20.7542 2.17838C21.1942 3.73808 21.1942 6.99231 21.1942 6.99231C21.1942 6.99231 21.1942 10.2464 20.7542 11.8062Z"/>
<path fill-rule="evenodd" clip-rule="evenodd" d="M8.56262 3.99211L14.032 6.99198L8.56262 9.99219V3.99211Z"/>
</symbol></svg>