<svg width="79" height="83" viewBox="0 0 79 83" fill="none" xmlns="http://www.w3.org/2000/svg">
<path d="M41.7529 34.1324V51.5998C41.7529 52.6423 40.8798 53.5174 39.8417 53.5174H36.2681C35.2289 53.5174 34.3569 52.6423 34.3569 51.5998V39.6179C32.8687 40.0716 31.8517 40.3314 29.9316 40.379C29.715 40.385 29.7663 38.1661 29.5449 38.1661L27.5934 40.387H24.0178C16.188 40.387 11.2911 36.7202 10.2984 28.7904C9.90482 30.6971 9.69531 32.6723 9.69531 34.6961C9.69531 50.6812 22.6101 63.64 38.5398 63.64C45.4543 63.64 51.7909 61.1885 56.7582 57.1165L41.7529 34.1324Z" fill="white"/>
<path d="M25.1421 10.8731H29.6701C35.3191 10.8731 41.3433 13.9166 41.3433 18.3767C41.3433 20.2539 39.806 20.6289 39.2663 20.6289H36.8567C35.6927 20.6289 34.8216 20.0449 34.1148 18.711C33.3664 17.2935 31.4555 16.6264 28.9623 16.6264H25.3485C19.3662 16.6264 17.7461 18.8344 17.7461 25.6306C17.7461 32.4257 19.3662 34.6354 24.2267 34.6354H28.3812C32.277 34.6354 33.9273 33.2339 34.3583 31.013V29.7986H29.9179C28.8798 29.7986 28.0067 28.9245 28.0067 27.8827V26.2974C28.0067 25.2557 28.8798 24.3795 29.9179 24.3795H36.0229C36.0934 24.3715 36.1557 24.336 36.2281 24.336H42.2113C43.2072 24.336 44.3703 25.2949 44.9937 26.2539L57.2488 45.1811V26.2135C57.2488 25.1718 58.1208 24.336 59.16 24.336H62.6491C63.7295 24.336 64.5601 25.1718 64.5601 26.2539V47.2032C66.3705 43.417 67.3855 39.1752 67.3855 34.6961C67.3855 18.7101 54.4719 5.75134 38.5413 5.75134C32.3375 5.75134 26.5961 7.72363 21.8917 11.0682C22.9126 10.9419 23.991 10.8731 25.1421 10.8731Z" fill="white"/>
<path d="M29.5443 46.4998H22.8724L29.5443 38.8904V46.4998ZM34.3483 51.5903V39.5492C34.3443 39.5512 34.3403 39.5512 34.3361 39.5521V35.3881C34.1317 34.9768 33.713 34.6961 33.2155 34.6961H29.1153C28.2313 34.6961 27.5877 34.9376 27.0793 35.5024L18.4237 45.3713C17.9151 45.9349 17.6211 46.527 17.6211 47.4143V48.9733C17.6211 49.6464 18.1831 50.2112 18.8798 50.2112H29.5443V52.3078C29.5443 52.9806 30.1072 53.5182 30.7768 53.5182H36.2684C35.2252 53.5182 34.3483 52.638 34.3483 51.5903Z" fill="#00A69C"/>
<path d="M58.9329 60.3215C53.3365 64.8149 46.2488 67.5115 38.5405 67.5115C20.5086 67.5115 5.83868 52.7907 5.83868 34.6949C5.83868 16.6023 20.5086 1.88035 38.5405 1.88035C56.5716 1.88035 71.2417 16.6023 71.2417 34.6949C71.2417 42.1499 68.7474 49.028 64.5587 54.5439V57.5075C69.8802 51.4035 73.1156 43.4242 73.1156 34.6949C73.1156 15.5646 57.6048 0 38.5405 0C19.4753 0 3.96484 15.5646 3.96484 34.6949C3.96484 53.8275 19.4753 69.3922 38.5405 69.3922C46.6284 69.3922 54.0704 66.583 59.9659 61.8968L58.9329 60.3215Z" fill="white"/>
<path d="M57.541 58.198C52.3493 62.4316 45.7368 64.9758 38.5414 64.9758C21.9029 64.9758 8.36679 51.3929 8.36679 34.6955C8.36679 18.0003 21.9029 4.416 38.5414 4.416C55.1799 4.416 68.7169 18.0003 68.7169 34.6955C68.7169 40.2781 67.1976 45.509 64.5602 50.0044V52.3599C67.9708 47.3166 69.9665 41.2359 69.9665 34.6955C69.9665 17.3081 55.8695 3.16205 38.5414 3.16205C21.2142 3.16205 7.11719 17.3081 7.11719 34.6955C7.11719 52.0841 21.2142 66.2298 38.5414 66.2298C45.9905 66.2298 52.8388 63.6107 58.2297 59.2477L57.541 58.198Z" fill="white"/>
<path d="M7.698 77.6004C7.29412 77.6004 6.95589 77.261 6.95589 76.8557V76.2405C6.95589 75.8352 7.29412 75.4946 7.698 75.4946H11.6523C12.0559 75.4946 12.3944 75.8352 12.3944 76.2405V77.1143C12.3944 80.0307 10.6513 81.714 7.18138 81.714H5.4063C1.98458 81.714 0 79.9164 0 75.9807C0 72.045 1.98458 70.2486 5.84215 70.2486H7.60124C9.79647 70.2486 12.1364 71.4309 12.1364 73.1626C12.1364 73.8921 11.5393 74.0376 11.3301 74.0376H10.3936C9.94147 74.0376 9.60324 73.8113 9.32808 73.2929C9.03809 72.7424 8.29512 72.4838 7.32637 72.4838H5.92292C3.59868 72.4838 2.9696 73.3416 2.9696 75.9807C2.9696 78.6209 3.59868 79.4799 5.48679 79.4799H7.10089C8.87597 79.4799 9.4571 78.734 9.47308 77.6004H7.698Z" fill="white"/>
<path d="M16.1292 76.4837H19.7933C19.7439 75.2681 19.1631 74.6214 17.9688 74.6214C16.8068 74.6214 16.1935 75.2681 16.1292 76.4837ZM16.1452 78.1506C16.2591 79.4472 16.8391 80.0141 18.1632 80.0141C18.8408 80.0141 19.4379 79.819 19.7116 79.4793C19.9211 79.2207 20.2123 79.058 20.6159 79.058H21.7941C22.0679 79.058 22.2774 79.2682 22.2774 79.5441C22.2774 81.2285 20.5517 81.8116 17.9688 81.8116C15.096 81.8116 13.3691 80.2564 13.3691 77.3252C13.3691 74.4103 15.1131 72.8226 17.9688 72.8226C20.8417 72.8226 22.5685 74.3616 22.5685 77.212V77.6657C22.5685 77.9407 22.359 78.1506 22.085 78.1506H16.1452Z" fill="white"/>
<path d="M24.5117 81.6495C24.2366 81.6495 24.0273 81.4393 24.0273 81.1635V70.7985C24.0273 70.5235 24.2366 70.3124 24.5117 70.3124H26.2708C26.5457 70.3124 26.7549 70.5235 26.7549 70.7985V81.1635C26.7549 81.4393 26.5457 81.6495 26.2708 81.6495H24.5117Z" fill="white"/>
<path d="M32.6198 77.1264L29.9405 80.1819H32.6198V77.1264ZM27.832 80.5488C27.832 80.1919 27.9499 79.9545 28.1543 79.7282L31.6302 75.7665C31.8346 75.539 32.0923 75.442 32.4477 75.442H34.094C34.374 75.442 34.5995 75.6582 34.5995 75.9392V80.1819H35.1807C35.4604 80.1819 35.6862 80.3982 35.6862 80.678V81.1752C35.6862 81.445 35.4604 81.6722 35.1807 81.6722H34.5995V82.5028C34.5995 82.7726 34.374 83 34.094 83H33.1145C32.8456 83 32.6198 82.7838 32.6198 82.514V81.6722H28.3375C28.0575 81.6722 27.832 81.445 27.832 81.1752V80.5488Z" fill="#04A29B"/>
<path d="M37.7792 81.6495C37.3753 81.6495 37.0371 81.309 37.0371 80.9048V71.0583C37.0371 70.653 37.3605 70.3124 37.7632 70.3124H40.0872C40.4748 70.3124 40.9269 70.6854 41.1687 71.0583L45.9293 78.411V71.042C45.9293 70.6367 46.2687 70.3124 46.6715 70.3124H48.0278C48.4477 70.3124 48.7699 70.6367 48.7699 71.0583V80.9048C48.7699 81.309 48.4477 81.6495 48.0278 81.6495H45.4127C44.994 81.6495 44.5256 81.309 44.267 80.9048L39.9099 74.1187V80.9048C39.9099 81.309 39.5706 81.6495 39.1678 81.6495H37.7792Z" fill="white"/>
<path d="M56.7331 79.3009V78.0701H54.3127C53.5535 78.0701 53.1185 78.4915 53.1185 79.0262C53.1185 79.593 53.5535 80.0132 54.3932 80.0132C55.3608 80.0132 56.1683 79.6575 56.7331 79.3009ZM53.5857 75.1552C53.3762 75.4139 53.0862 75.5766 52.6823 75.5766H51.5044C51.2295 75.5766 51.02 75.3663 51.02 75.0905C51.02 73.4061 52.6986 72.8232 55.3126 72.8232C57.6365 72.8232 59.461 73.795 59.461 76.2726V81.1632C59.461 81.439 59.2515 81.6493 58.9766 81.6493H57.4593C57.1853 81.6493 56.9749 81.439 56.9749 81.1632V80.9206C56.249 81.439 55.3608 81.8119 54.1192 81.8119C52.0047 81.8119 50.3906 80.8559 50.3906 79.0262C50.3906 77.1951 52.0047 76.2726 54.1192 76.2726H56.7331C56.7331 75.0097 56.2005 74.6205 55.119 74.6205C54.4577 74.6205 53.8606 74.8156 53.5857 75.1552Z" fill="white"/>
<path d="M61.919 81.6495C61.6441 81.6495 61.4346 81.4393 61.4346 81.1635V73.665C61.4346 73.3903 61.6441 73.1801 61.919 73.1801H63.6781C63.9529 73.1801 64.1624 73.3903 64.1624 73.665V81.1635C64.1624 81.4393 63.9529 81.6495 63.6781 81.6495H61.919ZM61.4023 71.0583C61.4023 70.4903 61.7417 70.1509 62.3057 70.1509H63.2904C63.8553 70.1509 64.1947 70.4903 64.1947 71.0583V71.3329C64.1947 71.8998 63.8553 72.2403 63.2904 72.2403H62.3057C61.7417 72.2403 61.4023 71.8998 61.4023 71.3329V71.0583Z" fill="white"/>
<path d="M66.619 81.6495C66.3441 81.6495 66.1346 81.4393 66.1346 81.1635V70.7985C66.1346 70.5235 66.3441 70.3124 66.619 70.3124H68.3781C68.6529 70.3124 68.8625 70.5235 68.8625 70.7985V81.1635C68.8625 81.4393 68.6529 81.6495 68.3781 81.6495H66.619Z" fill="white"/>
<path d="M74.6572 81.8116C72.011 81.8116 70.3315 81.2288 70.3315 79.5443C70.3315 79.2685 70.5419 79.0583 70.8159 79.0583H71.9939C72.3978 79.0583 72.6886 79.221 72.8981 79.4796C73.1721 79.819 73.7692 80.0141 74.4628 80.0141C75.8192 80.0141 76.2713 79.7059 76.2713 79.2522C76.2713 77.9083 70.3164 78.653 70.3164 75.3812C70.3164 73.5524 72.1389 72.8229 74.4154 72.8229C77.0616 72.8229 78.7403 73.4061 78.7403 75.0902C78.7403 75.3663 78.5307 75.5763 78.257 75.5763H77.0788C76.674 75.5763 76.384 75.4136 76.1745 75.1549C75.9008 74.8155 75.3026 74.6205 74.609 74.6205C73.4952 74.6205 73.0431 74.9287 73.0431 75.3812C73.0431 76.7262 78.9991 75.9492 78.9991 79.2522C78.9991 81.0821 77.1755 81.8116 74.6572 81.8116Z" fill="white"/>
</svg>
