<svg width="79" height="83" viewBox="0 0 79 83" fill="none" xmlns="http://www.w3.org/2000/svg">
<g clip-path="url(#clip0_1845_3099)">
<path d="M41.7539 34.1324V51.5997C41.7539 52.6423 40.8808 53.5173 39.8427 53.5173H36.2691C35.2298 53.5173 34.3579 52.6423 34.3579 51.5997V39.6179C32.8696 40.0716 31.8527 40.3314 29.9326 40.3789C29.7159 40.385 29.7673 38.1661 29.5458 38.1661L27.5944 40.387H24.0188C16.1889 40.387 11.2921 36.7202 10.2994 28.7904C9.90579 30.6971 9.69629 32.6722 9.69629 34.6961C9.69629 50.6812 22.6111 63.64 38.5408 63.64C45.4553 63.64 51.7918 61.1885 56.7591 57.1165L41.7539 34.1324Z" fill="#1A1A1A"/>
<path d="M25.1421 10.8731H29.6701C35.3191 10.8731 41.3433 13.9166 41.3433 18.3767C41.3433 20.2539 39.806 20.6289 39.2663 20.6289H36.8567C35.6927 20.6289 34.8216 20.0449 34.1148 18.711C33.3664 17.2935 31.4555 16.6264 28.9623 16.6264H25.3485C19.3662 16.6264 17.7461 18.8344 17.7461 25.6306C17.7461 32.4257 19.3662 34.6354 24.2267 34.6354H28.3812C32.277 34.6354 33.9273 33.2339 34.3583 31.013V29.7986H29.9179C28.8798 29.7986 28.0067 28.9245 28.0067 27.8827V26.2974C28.0067 25.2557 28.8798 24.3795 29.9179 24.3795H36.0229C36.0934 24.3715 36.1557 24.336 36.2281 24.336H42.2113C43.2072 24.336 44.3703 25.2949 44.9937 26.2539L57.2488 45.1811V26.2135C57.2488 25.1718 58.1208 24.336 59.16 24.336H62.6491C63.7295 24.336 64.5601 25.1718 64.5601 26.2539V47.2032C66.3705 43.417 67.3855 39.1752 67.3855 34.6961C67.3855 18.7101 54.4719 5.75134 38.5413 5.75134C32.3375 5.75134 26.5961 7.72363 21.8917 11.0682C22.9126 10.9419 23.991 10.8731 25.1421 10.8731Z" fill="#1A1A1A"/>
<path d="M29.5443 46.4998H22.8724L29.5443 38.8904V46.4998ZM34.3483 51.5903V39.5492C34.3443 39.5512 34.3403 39.5512 34.3361 39.5521V35.3881C34.1317 34.9768 33.713 34.6961 33.2155 34.6961H29.1153C28.2313 34.6961 27.5877 34.9376 27.0793 35.5024L18.4237 45.3713C17.9151 45.9349 17.6211 46.527 17.6211 47.4143V48.9733C17.6211 49.6464 18.1831 50.2112 18.8798 50.2112H29.5443V52.3078C29.5443 52.9806 30.1072 53.5182 30.7768 53.5182H36.2684C35.2252 53.5182 34.3483 52.638 34.3483 51.5903Z" fill="#04A29B"/>
<path d="M58.9339 60.3215C53.3375 64.8149 46.2498 67.5115 38.5415 67.5115C20.5095 67.5115 5.83966 52.7907 5.83966 34.6949C5.83966 16.6023 20.5095 1.88035 38.5415 1.88035C56.5726 1.88035 71.2427 16.6023 71.2427 34.6949C71.2427 42.1499 68.7484 49.028 64.5597 54.5439V57.5075C69.8812 51.4035 73.1165 43.4242 73.1165 34.6949C73.1165 15.5646 57.6058 0 38.5415 0C19.4763 0 3.96582 15.5646 3.96582 34.6949C3.96582 53.8275 19.4763 69.3922 38.5415 69.3922C46.6294 69.3922 54.0713 66.583 59.9669 61.8968L58.9339 60.3215Z" fill="#1A1A1A"/>
<path d="M57.5401 58.198C52.3484 62.4316 45.7359 64.9759 38.5405 64.9759C21.9021 64.9759 8.36591 51.393 8.36591 34.6955C8.36591 18.0004 21.9021 4.41603 38.5405 4.41603C55.179 4.41603 68.716 18.0004 68.716 34.6955C68.716 40.2781 67.1967 45.509 64.5593 50.0044V52.3599C67.9699 47.3166 69.9656 41.2359 69.9656 34.6955C69.9656 17.3081 55.8686 3.16208 38.5405 3.16208C21.2133 3.16208 7.1163 17.3081 7.1163 34.6955C7.1163 52.0841 21.2133 66.2298 38.5405 66.2298C45.9896 66.2298 52.8379 63.6108 58.2288 59.2477L57.5401 58.198Z" fill="#1A1A1A"/>
<path d="M7.698 77.6004C7.29412 77.6004 6.95589 77.261 6.95589 76.8557V76.2405C6.95589 75.8352 7.29412 75.4946 7.698 75.4946H11.6523C12.0559 75.4946 12.3944 75.8352 12.3944 76.2405V77.1143C12.3944 80.0307 10.6513 81.714 7.18138 81.714H5.4063C1.98458 81.714 0 79.9164 0 75.9807C0 72.045 1.98458 70.2486 5.84215 70.2486H7.60124C9.79647 70.2486 12.1364 71.4309 12.1364 73.1626C12.1364 73.8921 11.5393 74.0376 11.3301 74.0376H10.3936C9.94147 74.0376 9.60324 73.8113 9.32808 73.2929C9.03809 72.7424 8.29512 72.4838 7.32637 72.4838H5.92292C3.59868 72.4838 2.9696 73.3416 2.9696 75.9807C2.9696 78.6209 3.59868 79.4799 5.48679 79.4799H7.10089C8.87597 79.4799 9.4571 78.734 9.47308 77.6004H7.698Z" fill="#1A1A1A"/>
<path d="M16.1301 76.4837H19.7942C19.7448 75.2681 19.1639 74.6214 17.9697 74.6214C16.8077 74.6214 16.1943 75.2681 16.1301 76.4837ZM16.1461 78.1506C16.26 79.4472 16.84 80.0141 18.1641 80.0141C18.8417 80.0141 19.4388 79.819 19.7125 79.4793C19.922 79.2207 20.2132 79.058 20.6168 79.058H21.795C22.0687 79.058 22.2782 79.2682 22.2782 79.5441C22.2782 81.2285 20.5525 81.8116 17.9697 81.8116C15.0969 81.8116 13.37 80.2564 13.37 77.3252C13.37 74.4103 15.114 72.8226 17.9697 72.8226C20.8425 72.8226 22.5694 74.3616 22.5694 77.212V77.6657C22.5694 77.9407 22.3599 78.1506 22.0859 78.1506H16.1461Z" fill="#1A1A1A"/>
<path d="M24.5127 81.6495C24.2375 81.6495 24.0283 81.4393 24.0283 81.1635V70.7985C24.0283 70.5235 24.2375 70.3124 24.5127 70.3124H26.2718C26.5467 70.3124 26.7559 70.5235 26.7559 70.7985V81.1635C26.7559 81.4393 26.5467 81.6495 26.2718 81.6495H24.5127Z" fill="#1A1A1A"/>
<path d="M32.6208 77.1264L29.9414 80.1819H32.6208V77.1264ZM27.833 80.5488C27.833 80.1919 27.9509 79.9545 28.1552 79.7282L31.6312 75.7665C31.8355 75.539 32.0933 75.442 32.4486 75.442H34.095C34.375 75.442 34.6005 75.6582 34.6005 75.9392V80.1819H35.1816C35.4613 80.1819 35.6871 80.3982 35.6871 80.678V81.1752C35.6871 81.445 35.4613 81.6722 35.1816 81.6722H34.6005V82.5028C34.6005 82.7726 34.375 83 34.095 83H33.1154C32.8465 83 32.6208 82.7838 32.6208 82.514V81.6722H28.3385C28.0585 81.6722 27.833 81.445 27.833 81.1752V80.5488Z" fill="#04A29B"/>
<path d="M37.7782 81.6495C37.3744 81.6495 37.0361 81.309 37.0361 80.9048V71.0583C37.0361 70.653 37.3595 70.3124 37.7623 70.3124H40.0862C40.4738 70.3124 40.926 70.6854 41.1677 71.0583L45.9284 78.411V71.042C45.9284 70.6367 46.2677 70.3124 46.6705 70.3124H48.0268C48.4467 70.3124 48.769 70.6367 48.769 71.0583V80.9048C48.769 81.309 48.4467 81.6495 48.0268 81.6495H45.4117C44.993 81.6495 44.5246 81.309 44.266 80.9048L39.909 74.1187V80.9048C39.909 81.309 39.5696 81.6495 39.1669 81.6495H37.7782Z" fill="#1A1A1A"/>
<path d="M56.7331 79.3009V78.0701H54.3127C53.5535 78.0701 53.1185 78.4914 53.1185 79.0262C53.1185 79.593 53.5535 80.0132 54.3932 80.0132C55.3608 80.0132 56.1683 79.6575 56.7331 79.3009ZM53.5857 75.1552C53.3762 75.4139 53.0862 75.5765 52.6823 75.5765H51.5044C51.2295 75.5765 51.02 75.3663 51.02 75.0905C51.02 73.4061 52.6986 72.8232 55.3126 72.8232C57.6365 72.8232 59.461 73.795 59.461 76.2725V81.1632C59.461 81.439 59.2515 81.6492 58.9766 81.6492H57.4593C57.1853 81.6492 56.9749 81.439 56.9749 81.1632V80.9206C56.249 81.439 55.3608 81.8119 54.1192 81.8119C52.0047 81.8119 50.3906 80.8558 50.3906 79.0262C50.3906 77.1951 52.0047 76.2725 54.1192 76.2725H56.7331C56.7331 75.0097 56.2005 74.6205 55.119 74.6205C54.4577 74.6205 53.8606 74.8155 53.5857 75.1552Z" fill="#1A1A1A"/>
<path d="M61.9199 81.6495C61.6451 81.6495 61.4356 81.4393 61.4356 81.1635V73.665C61.4356 73.3903 61.6451 73.1801 61.9199 73.1801H63.679C63.9539 73.1801 64.1634 73.3903 64.1634 73.665V81.1635C64.1634 81.4393 63.9539 81.6495 63.679 81.6495H61.9199ZM61.4033 71.0583C61.4033 70.4903 61.7427 70.1509 62.3067 70.1509H63.2914C63.8563 70.1509 64.1957 70.4903 64.1957 71.0583V71.3329C64.1957 71.8998 63.8563 72.2403 63.2914 72.2403H62.3067C61.7427 72.2403 61.4033 71.8998 61.4033 71.3329V71.0583Z" fill="#1A1A1A"/>
<path d="M66.619 81.6495C66.3441 81.6495 66.1346 81.4393 66.1346 81.1635V70.7985C66.1346 70.5235 66.3441 70.3124 66.619 70.3124H68.3781C68.6529 70.3124 68.8625 70.5235 68.8625 70.7985V81.1635C68.8625 81.4393 68.6529 81.6495 68.3781 81.6495H66.619Z" fill="#1A1A1A"/>
<path d="M74.6581 81.8116C72.0118 81.8116 70.3324 81.2288 70.3324 79.5443C70.3324 79.2685 70.5427 79.0583 70.8168 79.0583H71.9947C72.3986 79.0583 72.6895 79.221 72.899 79.4796C73.173 79.819 73.7701 80.0141 74.4637 80.0141C75.82 80.0141 76.2721 79.7059 76.2721 79.2522C76.2721 77.9083 70.3173 78.653 70.3173 75.3812C70.3173 73.5524 72.1397 72.8229 74.4163 72.8229C77.0625 72.8229 78.7411 73.4061 78.7411 75.0902C78.7411 75.3663 78.5316 75.5763 78.2579 75.5763H77.0796C76.6749 75.5763 76.3849 75.4136 76.1754 75.1549C75.9017 74.8155 75.3034 74.6205 74.6098 74.6205C73.4961 74.6205 73.044 74.9287 73.044 75.3812C73.044 76.7262 79 75.9492 79 79.2522C79 81.0821 77.1764 81.8116 74.6581 81.8116Z" fill="#1A1A1A"/>
</g>
<defs>
<clipPath id="clip0_1845_3099">
<rect width="79" height="83" fill="white"/>
</clipPath>
</defs>
</svg>
